<svg xmlns="http://www.w3.org/2000/svg" viewBox="0 0 105 105"><title>icon-fox-news</title><path fill="#036" d="M0 0h105v85.16H0z"/><path fill="#c20017" d="M0 86.33h105V105H0z"/><path fill="#fff" d="M105 61h-.2a82.82 82.82 0 0 0-4-8.36h1.29c1 2 2 3.94 2.86 5.95V61zM0 11.66A84.78 84.78 0 0 1 15.89 8l1.54-8H29.9l-2.8 7.26a82.38 82.38 0 0 1 10 .59L41 0h13.74l-6.53 9.91A84.12 84.12 0 0 1 72.63 20.6q2.25 1.44 4.36 3H75a83.87 83.87 0 0 0-27.46-12.66l-8 12.39h-5.71v8.43L19.69 54.83h-4.52v7.71L.68 85.16H.22l36.4-76.22a78.32 78.32 0 0 0-9.92-.54L.1 85.16H0m0-1.42L15.64 9.21A83.3 83.3 0 0 0 .07 13H0m.68 72.16zm-.47 0zM54.19 0z"/><path fill="#fff" d="M43.16 42.79h7.67v-7.17h-7.67v-3.41h9.34L52 25H35.36v26.33h7.8zm32.45 8.46H84l3.83-6.45 3.92 6.46h8.58l-8.28-13.63 7.46-12.57H91l-3.2 5.46-3.32-5.47h-8.65l7.68 12.64zm-9.76.29A13.47 13.47 0 0 0 79.5 38.3a13.69 13.69 0 0 0-27.35 0 13.46 13.46 0 0 0 13.67 13.24zm-2.42-19a2.44 2.44 0 0 1 2.33-2.42 2.52 2.52 0 0 1 2.47 2.42v11.15a2.41 2.41 0 0 1-4.8 0zM44.94 71h7.94v-5.3h-7.94v-3.58h9.68v-5.69H38.81V81h15.93v-5.89h-9.8zm34.18-14.57l-3 14.08-3-14.08h-5.27L65 70.65l-3-14.22h-6.2L61.49 81h5.71L70 66.93 72.88 81h5.59l5.72-24.59zm20.74 11.11c-1.63-1.5-3.5-1.9-5.6-2.5-2.48-.7-3.85-.77-3.85-2.22a2 2 0 0 1 2.13-1.75A3.23 3.23 0 0 1 96 63.54l5.36-1.79A8.24 8.24 0 0 0 93 55.64c-5.6 0-9 3.44-9 8.07 0 4 2.33 6 7 7.38 2.78.84 4.26.77 4.26 2.56 0 .95-.87 1.69-2.33 1.69a3.64 3.64 0 0 1-4-3L83 73.63c1 4.67 4.48 7.44 9.81 7.44a9.37 9.37 0 0 0 7-2.89 7.91 7.91 0 0 0 2.06-5.41 6.87 6.87 0 0 0-2-5.24zm-68.68 1.23l-7.33-12.23h-7.11V81H23V66.72L31.35 81h5.91V56.5h-6.07zM10.09 94.77a1.42 1.42 0 0 1 1.57.9h3.51C15 94 13.07 93 10.14 93c-3.35 0-5.47 1.48-5.47 3.82 0 2.12 2.09 3.5 5.26 3.5 2.93 0 4.84-1 5.2-2.74h-3.46c-.19.66-.74 1-1.64 1a1.63 1.63 0 0 1-1.79-1.86 1.75 1.75 0 0 1 1.85-1.95zm34.07 4v-2.56a2.5 2.5 0 0 0-.7-2.19 6.36 6.36 0 0 0-3.91-.88c-3 0-4.67.73-5 2.33h3.21c.14-.5.72-.77 1.72-.77s1.38.21 1.38.6v.16c0 .53-1.32.42-3.78.79-1.88.28-2.82 1-2.82 2.11s1.23 2 3.32 2a6.1 6.1 0 0 0 3.42-.95 4.12 4.12 0 0 0 .18.69h3.51v-.25c-.31-.12-.47-.48-.47-1.09zm-3.32-1.1c0 .72-.85 1.16-2 1.16-.78 0-1.28-.34-1.28-.8s.36-.63 1.16-.76a14.11 14.11 0 0 0 2.14-.38zm15.7-4.54a4.26 4.26 0 0 0-3.22 1.09v-.9h-3.39v6.8h3.51v-3.64c0-1.16.5-1.64 1.76-1.64s1.46.6 1.46 1.85v3.42h3.5v-4.45c0-1.71-1-2.51-3.58-2.51zm-30.27.09A4.6 4.6 0 0 0 23 94.3V91h-3.5v9.21H23v-3.62c0-1.16.5-1.64 1.76-1.64s1.46.6 1.46 1.85v3.42h3.5v-4.67c0-1.51-1.2-2.31-3.42-2.31zm46.67-.09a4.26 4.26 0 0 0-3.22 1.09v-.9h-3.33v6.8h3.51v-3.64c0-1.16.5-1.64 1.76-1.64s1.46.6 1.46 1.85v3.42h3.5v-4.45c0-1.71-1-2.51-3.6-2.51zm13.6-.07c-3.24 0-5.34 1.39-5.34 3.66s2.15 3.6 5.43 3.6c2.72 0 4.66-.87 5.25-2.33h-3.35c-.24.49-.84.75-1.78.75-1.24 0-1.91-.51-1.91-1.47H92v-.4c0-2.38-2.06-3.8-5.4-3.8zM84.66 96c.14-.91.87-1.4 2-1.4s2 .51 2 1.4zm12.17-5v9.21h3.5V91z"/></svg>