<svg xmlns="http://www.w3.org/2000/svg" viewBox="0 0 105 105"><title>icon-new-york-times</title><path d="M0 0h105v105H0z"/><path fill="#fff" d="M78.32 26.78c0-7.39-6.94-9.54-12.73-9.26v1.15c3.48.09 6.14 1.25 6.14 3.56 0 1.6-1.15 3.65-4.63 3.65-2.76 0-8.1-1.6-12.38-3-4.71-1.6-9.17-3.11-12.9-3.11C34.52 19.74 29 25.18 29 31.85c0 5.43 4.1 7.39 5.8 8.11l.53-.9a3.87 3.87 0 0 1-2.13-3.65c0-1.61 1.41-4.19 5.16-4.19 3.38 0 7.83 1.52 13.71 3.21a112 112 0 0 0 13.71 3.12v11.56l-5.71 4.73v.45l5.71 5V75.2a18.47 18.47 0 0 1-9.25 2.15c-5.44 0-10.6-1.43-14.71-6L57.13 64V38.44l-18.78 8.37c2-5 5.87-8.27 9.88-10.68l-.28-.9c-11.1 3-21.27 13.27-21.27 25.91A26.27 26.27 0 0 0 52.94 87.5c15.14 0 24.76-11.85 24.58-24.4l-.9-.08c-2.21 4.81-5.42 9.35-9.6 11.75V59.28l6-4.81-.02-.54-6-4.8V37.55c5.52 0 11.3-3.75 11.3-10.79zm-32.5 41.4l-4.54 2.22C38.7 67 37 62.47 37 56.15a26 26 0 0 1 1.07-8l7.84-3.47z"/></svg>