<svg xmlns="http://www.w3.org/2000/svg" viewBox="0 0 105 105"><title>icon-the-guardian</title><path fill="#0e295f" d="M0 0h105v105H0z"/><path fill="#fff" d="M33.4 53.27l.74-.38c.09 0 .42-.16.47-.26a1.13 1.13 0 0 0 0-.26v-9.11a.81.81 0 0 0 0-.22 1 1 0 0 0-.24 0h-.52c-.19 0-.17 0-.28.17-.46.59-.91 1.19-1.36 1.8-.21.29-.42.55-.61.83s-.15.22-.41.22l.07-1.57v-1.14-.43-.21c0-.02.47 0 .59 0h8.95a1.07 1.07 0 0 1 .31 0v1.18c0 .69 0 1.36.1 2v.15c-.12 0-.22 0-.31-.05a1.23 1.23 0 0 1-.24-.31c-.28-.38-.57-.78-.88-1.16L39 43.4c0-.07-.12-.24-.21-.29a.79.79 0 0 0-.31 0h-.38a1.41 1.41 0 0 0-.29 0v.07a2.57 2.57 0 0 0 0 .62V52a2.18 2.18 0 0 0 0 .57c.05.16.43.28.59.35a3.41 3.41 0 0 1 .6.31.49.49 0 0 1 0 .36h-5.36a1 1 0 0 1-.24 0 2.16 2.16 0 0 1 0-.32zm8.8-.43V42.78a1.68 1.68 0 0 0 0-.5c0-.16-.33-.19-.49-.26s-.41-.09-.46-.19v-.19h.08a3.65 3.65 0 0 1 .4-.07c.21 0 .43-.07.62-.12.47-.09 1-.19 1.44-.26.29 0 .57-.12.86-.16.07 0 .35-.05.38 0s0 .11 0 .14v4.91A4.21 4.21 0 0 1 48.75 45a2.11 2.11 0 0 1 1.45 2.32v5.07a1.81 1.81 0 0 0 0 .52c0 .05.12.07.17.12l.52.28s.09 0 .09.07a.39.39 0 0 1 0 .26h-.09a5.07 5.07 0 0 1-.78 0h-3.59a.81.81 0 0 1 0-.31c.07-.1.36-.19.45-.26s.29-.12.34-.19a1.41 1.41 0 0 0 0-.41v-1-4.15a1.14 1.14 0 0 0-.48-1.09 1.55 1.55 0 0 0-.73-.15 2 2 0 0 0-.55.1 1.33 1.33 0 0 0-.5.26c-.07.1 0 .24 0 .36v5.6a1.36 1.36 0 0 0 0 .45c0 .05.12.09.19.12l.54.28h.07a.39.39 0 0 1 0 .26h-.09a7.3 7.3 0 0 1-.81 0h-3.6a.85.85 0 0 1 0-.31 1.49 1.49 0 0 1 .43-.23 1.84 1.84 0 0 0 .42-.13zm11.28-3.27a3.3 3.3 0 0 0 1.32 2.78 3 3 0 0 0 1.69.33 5.27 5.27 0 0 0 1.85-.68 2 2 0 0 1 0 .35 1.37 1.37 0 0 1-.24.29c-.09.09-.21.21-.33.31a4.33 4.33 0 0 1-1.33.73 5.09 5.09 0 0 1-2.87.05 3.73 3.73 0 0 1-1.9-1.12 4 4 0 0 1-.9-2.06 4.88 4.88 0 0 1 1.4-4.61 4.79 4.79 0 0 1 4.49-.57c1.7.69 2 2.64 2 4.25h-4.54c-.22-.05-.43-.05-.64-.05zm0-.4c.47 0 1-.05 1.45-.1h.87A.82.82 0 0 0 56 49c.07 0 0-.52 0-.62a5 5 0 0 0-.54-2.63.7.7 0 0 0-1.24 0 5.78 5.78 0 0 0-.78 3.37zM17.5 57.83a6.88 6.88 0 0 1 1-3.82 5.39 5.39 0 0 1 3.08-2.16 10.5 10.5 0 0 1 4.7-.1 9.82 9.82 0 0 1 1 .24c.05 0 .26.07.29.12v.07a4 4 0 0 1 0 .92c0 .74 0 1.5.05 2.24a1.81 1.81 0 0 1-.33 0c-.05 0-.1-.15-.12-.19-.19-.29-.38-.57-.55-.88-.4-.64-.83-1.28-1.23-1.92-.21-.36-.81-.36-1.19-.36a2.37 2.37 0 0 0-1.21.28 3.71 3.71 0 0 0-1.4 2.35 15.51 15.51 0 0 0-.24 4.3 10.17 10.17 0 0 0 .6 3.25 2 2 0 0 0 1.4 1.31 2.4 2.4 0 0 0 .66 0c.14 0 .64 0 .71-.19s0-.17 0-.21V59.2c0-.16.05-.23-.09-.33a4 4 0 0 1-.52-.31c-.12-.07-.36-.14-.43-.23a.45.45 0 0 1 0-.36h.09a3.37 3.37 0 0 1 .71 0h3.68a6.09 6.09 0 0 1 .74 0h.1a.9.9 0 0 1 0 .4 1.25 1.25 0 0 1-.38.21c-.16.1-.35.19-.52.31s-.17.1-.17.31v4.08c0 .05-.54.19-.68.24a10.46 10.46 0 0 1-1.26.28 12.27 12.27 0 0 1-2.49.17 6.8 6.8 0 0 1-3.82-1.14 5 5 0 0 1-1.86-2.87 7.12 7.12 0 0 1-.32-2.13zm10.94-2.16a1.12 1.12 0 0 1 0-.26h.07a1.59 1.59 0 0 1 .5-.09l1.66-.32c.43-.07.85-.16 1.26-.21a.82.82 0 0 1 .38 0c.12 0 .07 0 .09.1a5.41 5.41 0 0 1 0 .9v5c0 .59-.16 1.68.41 2a1.37 1.37 0 0 0 1 .12c.26 0 .76-.24.85-.52a1 1 0 0 0 0-.24v-5.79a1 1 0 0 0 0-.24 1.59 1.59 0 0 0-.36-.12c-.14 0-.26-.12-.4-.16s-.22 0-.24-.1a.57.57 0 0 1 0-.26h.05a1.41 1.41 0 0 1 .45-.07c1-.17 2-.38 3-.53a1 1 0 0 1 .35 0c.12 0 .07 0 .1.1a5.75 5.75 0 0 1 0 .83v6.83a.93.93 0 0 0 0 .29c0 .07 0 0 .11.09s.5.22.74.31c.07 0 .1 0 .12.07s0 .22 0 .22h-.33c-.53.08-1 .12-1.59.19l-1.4.17a.71.71 0 0 1-.29 0 .65.65 0 0 1-.21 0 .94.94 0 0 1 0-.29v-.4c0-.07.05-.26 0-.33s-.14 0-.21.07a4.44 4.44 0 0 1-.62.45 3.78 3.78 0 0 1-2.66.5 2.11 2.11 0 0 1-1.52-1.17 3.34 3.34 0 0 1-.26-1.42v-5a1 1 0 0 0 0-.24c-.05-.07-.33-.14-.4-.19-.27-.13-.46-.2-.65-.29zm22.38-.9h.28c.02 0 0 .19 0 .22v2.09a1.13 1.13 0 0 0 0 .26c.1.1.12-.21.15-.23a3 3 0 0 1 1.51-2.26 2.42 2.42 0 0 1 .5-.12c.14 0 .55 0 .62.07a.81.81 0 0 1 0 .22v2.42a4.34 4.34 0 0 0-1.76 0 2.61 2.61 0 0 0-.73.24c-.12 0-.14 0-.17.12a2 2 0 0 0 0 .35v4.58a.49.49 0 0 0 0 .17.65.65 0 0 0 .29.14l.38.22s.11 0 .14.09a.91.91 0 0 1 0 .33h-4.65v-.3c0-.02.35-.24.5-.31s.28-.12.33-.22a.89.89 0 0 0 0-.23v-6.6-.17a.53.53 0 0 0-.19 0 2.3 2.3 0 0 0-.43-.12c-.14 0-.5-.07-.38-.31 0-.07.12 0 .21-.07l3.11-.57a1 1 0 0 1 .29-.01zm8.94.21v-2.44a.94.94 0 0 0 0-.29s-.11-.07-.19-.09-.37-.16-.57-.22-.21 0-.21-.19 0-.09.09-.12a6 6 0 0 1 .83-.14l2.29-.43a1.69 1.69 0 0 1 .5 0c.19 0 .21 0 .21.14v11.56c0 .09 0 .09.05.14a2.73 2.73 0 0 0 .52.19c.1 0 .36.07.4.14a.55.55 0 0 1 0 .31.58.58 0 0 1-.19 0c-.33 0-.64.1-1 .12l-2.23.29c-.12 0-.4.07-.45 0a1.68 1.68 0 0 1 0-.5v-.42c0-.04-.57.42-.64.47a3.18 3.18 0 0 1-2.56.45c-2.28-.52-2.76-3.22-2.57-5.19a4.79 4.79 0 0 1 1.14-2.85 3.84 3.84 0 0 1 2.49-1.12 4.23 4.23 0 0 1 2.09.21zm0 7.57v-6.93c0-.14 0-.17-.19-.26a1.32 1.32 0 0 0-1.11-.12 1.92 1.92 0 0 0-1 1.38 9.49 9.49 0 0 0-.28 3 5.29 5.29 0 0 0 .52 2.66 1.37 1.37 0 0 0 2.06.27zm7.86-7.78c.12 0 .26 0 .31.09a1.61 1.61 0 0 1 0 .31v7.43a1.22 1.22 0 0 0 0 .33c0 .09.12.12.21.17l.41.21s.18.07.21.14a1.82 1.82 0 0 1 0 .33h-.07a2.78 2.78 0 0 1-.5 0h-4.04a.46.46 0 0 1 0-.35.61.61 0 0 1 .29-.14l.42-.24c.12-.07.1 0 .1-.14a8.37 8.37 0 0 0 0-1.12V56.5a2.16 2.16 0 0 0 0-.36c0-.09-.14-.09-.24-.14l-.47-.19s-.24-.05-.29-.12a.66.66 0 0 1 0-.28h.1a5.49 5.49 0 0 1 .61-.12c.31 0 .6-.11.9-.16.6-.1 1.17-.22 1.76-.31a.79.79 0 0 0 .29-.05zm.38-2.21a1.62 1.62 0 0 1-2.85.92A1.55 1.55 0 0 1 65 51.7a1.62 1.62 0 0 1 1.69-.64 1.53 1.53 0 0 1 1.31 1.5zM78.35 63v-6.83V56c0-.02-.17-.07-.22-.07l-.42-.14c-.08 0-.27 0-.31-.12s0-.17 0-.24 0-.12.19-.14l1.54-.29 1.57-.28a.75.75 0 0 1 .26 0 1.88 1.88 0 0 1 .33 0 .81.81 0 0 1 0 .22v.45c0 .07-.05.28 0 .36s.14 0 .21-.08a4.69 4.69 0 0 1 .67-.42 4.54 4.54 0 0 1 2.83-.58 1.72 1.72 0 0 1 1.45 1.09 3.92 3.92 0 0 1 .19 1.4v5.41a2.16 2.16 0 0 0 0 .36c0 .09.1.12.22.17l.37.21c.05 0 .22.07.24.14a.54.54 0 0 1 0 .31c0 .05 0 0 0 0h-3.82c-.14 0-.68.07-.76 0a.91.91 0 0 1 0-.33s.17-.1.22-.12l.4-.21a1.14 1.14 0 0 0 .22-.12.6.6 0 0 0 0-.19V57.4a1.88 1.88 0 0 0-.22-1.14 1.07 1.07 0 0 0-.85-.38 2.59 2.59 0 0 0-.74.1c-.12 0-.47.14-.54.28s0 .14 0 .19v6.15a1.07 1.07 0 0 0 0 .31c0 .09.16.11.23.16s.26.14.38.22l.17.09a.91.91 0 0 1 0 .33h-4.65a.81.81 0 0 1 0-.31s.17-.1.22-.12a1.84 1.84 0 0 0 .62-.28zm-5-4.37v-1.9c0-.64-.26-1.45-1-1.59-.24 0-.67-.12-.83.07a5 5 0 0 0-.43.6l-1.21 1.63c-.07.1-.14.29-.24.34a.57.57 0 0 1-.26 0 1 1 0 0 1 0-.24V55.6a1.13 1.13 0 0 1 0-.26c0-.12.57-.19.69-.24a10.72 10.72 0 0 1 2-.33 5.92 5.92 0 0 1 3 .38 2.17 2.17 0 0 1 1.28 1.68 6.77 6.77 0 0 1 0 1.19v5.05a.41.41 0 0 0 .17 0l.55.14c.12 0 .14 0 .14.14s0 .12-.12.17a5.1 5.1 0 0 1-.5.19c-.88.26-2.25.33-2.89-.47-.05-.08-.19-.38-.26-.41s-.38.36-.48.43a2.68 2.68 0 0 1-1.37.59A2.54 2.54 0 0 1 69 63a2.69 2.69 0 0 1-.21-2.51c.64-1.45 2.54-1.59 3.92-1.83.2.02.39-.03.6-.05zm0 3.94V59c-.71.05-1.44.09-1.7.88a3.67 3.67 0 0 0-.12 1.68 1.47 1.47 0 0 0 .5 1.09 1.06 1.06 0 0 0 1.28-.1zm-30-3.94v-1.9c0-.64-.26-1.45-1-1.59-.23 0-.66-.12-.83.07a6.42 6.42 0 0 0-.42.6l-1.21 1.63c-.08.1-.15.29-.24.34a.57.57 0 0 1-.26 0V55.64a.76.76 0 0 1 0-.26c0-.12.54-.19.69-.24a12.76 12.76 0 0 1 2-.33 6 6 0 0 1 3 .38 2.19 2.19 0 0 1 1.28 1.68 6.77 6.77 0 0 1-.12 1.13v4.75c0 .07-.05.26 0 .31a.47.47 0 0 0 .16 0l.55.15c.12 0 .14 0 .14.14s0 .12-.12.16a2.47 2.47 0 0 1-.49.19c-.88.26-2.26.34-2.9-.47 0-.07-.19-.38-.26-.4s-.38.35-.45.42a2.69 2.69 0 0 1-1.38.6 2.57 2.57 0 0 1-2.49-.8 2.72 2.72 0 0 1-.21-2.52c.64-1.44 2.54-1.59 3.89-1.82.19-.03.38-.08.59-.1zm0 3.94V59c-.71.05-1.45.09-1.71.88a3.67 3.67 0 0 0-.12 1.68 1.51 1.51 0 0 0 .5 1.09 1.07 1.07 0 0 0 1.25-.1z"/></svg>