<svg xmlns="http://www.w3.org/2000/svg" viewBox="0 0 105 105"><title>icon-wall-street-journal</title><path fill="#f4f4f4" d="M0 0h105v105H0z"/><path fill="#1c1c21" d="M85.16 39.2c0-1.34.33-1.77 1.29-2l1-.29V36h-9.84v.86l1.2.29c1 .24 1.48.57 1.48 2v23c0 3.2-.29 5.78-2.68 5.78-1.53 0-2.67-1.2-2.62-2.06.14-1.48 2.62-1.38 2.81-3.77a2.19 2.19 0 0 0-2-2.58c-1.48-.19-3.29 1-3.34 3.53 0 3.2 2 6.12 5.64 6.12 4 0 7-2.68 7-7.79V39.2zM67.48 60.41c0-9.8-10.75-12.38-10.75-19.49 0-1.53.58-3.83 3-3.83 3.44 0 4.73 4.45 5.31 9.84h.9V36h-.57c-.24 1.05-.67 1.53-1.29 1.53-1.1 0-1.67-1.72-4.3-1.72-4.06 0-6.83 3.39-6.83 7.84 0 8.07 10.75 11.46 10.75 18.91 0 3.39-1.58 5.31-3.73 5.31-3.2 0-5.3-3.78-5.87-9.84h-.91V69h.57c.48-1.58 1.1-1.72 1.63-1.72.91 0 1.86 1.91 4.63 1.91 4.25 0 7.5-3.68 7.5-8.74m-41.1 8.64h2l4.45-23.5h-.67L37 69.05h1.72l5.83-27.7c.62-2.92 1-3.92 2.1-4.21l.91-.24V36h-6.75v.86l1 .19c1.44.29 1.77 1.15 1.1 4.69l-3.77 18.62h.57l-3.82-19.59c-.38-1.86-.62-3.39 1-3.68l1-.19V36h-9.21v.86l.62.15c.95.24 1.1.81 1.48 2.62l1.48 7.12-.26-4.26-3.32 17.39h.43l-3.87-19.11c-.43-2-.58-3.44 1-3.72l.72-.15V36H17.5v.86l.91.24c.86.24 1.34.67 1.91 3.3l6.06 28.61z"/></svg>