<svg xmlns="http://www.w3.org/2000/svg" viewBox="0 0 105 105"><title>icon-times-of-india</title><path fill="#c3351d" d="M0 0h105v105H0z"/><path fill="#fff" d="M28.47 62.53c0 2.52 3.72 1.32 3.72 2.26 0 .45-.38.52-1 .52-1.76 0-2.74-.07-5-.07s-3.23.07-5 .07c-.6 0-1-.07-1-.52 0-.94 3.72.26 3.72-2.26V40.66c-3.79 0-7.06 3.35-8.53 6.39-.41.87-.6 1.35-.82 1.35s-.34-.15-.34-.3a14.23 14.23 0 0 1 .38-2.1l1.21-6.17c0-.22.07-.71.41-.71s.3.15.49.3a2.25 2.25 0 0 0 1.35.3h16.27a2.23 2.23 0 0 0 1.35-.3c.19-.15.27-.3.49-.3s.38.49.42.71l1.2 6.17a14.45 14.45 0 0 1 .38 2.06c0 .15-.08.3-.34.3s-.42-.48-.83-1.35c-1.46-3-4.73-6.39-8.53-6.39zM71.43 52.5c0 8.42-7.14 13.34-13.49 13.34S44.45 60.92 44.45 52.5s7.14-13.34 13.49-13.34 13.49 4.92 13.49 13.34zM57.94 40.06c-4.94 0-8.53 3.94-8.53 12.44S53 64.94 57.94 64.94 66.47 61 66.47 52.5s-3.61-12.44-8.53-12.44zM83.14 42.47c0-2.47-3.14-1.32-3.14-2.26 0-.45.23-.52.83-.52 1.32 0 2.29.07 4.55.07s3.23-.07 4.54-.07c.61 0 .83.07.83.52 0 .94-3.12-.26-3.12 2.26v20.06c0 2.52 3.12 1.32 3.12 2.26 0 .45-.22.52-.83.52-1.31 0-2.29-.07-4.54-.07s-3.23.07-4.55.07c-.6 0-.83-.07-.83-.52 0-.94 3.12.26 3.12-2.26z"/></svg>