<svg xmlns="http://www.w3.org/2000/svg" viewBox="0 0 105 105"><title>icon-cnn</title><path fill="#bb261a" d="M0 0h105v105H0z"/><path fill="#fff" d="M22.81 52.51a10.83 10.83 0 0 0 10.82 10.82h10.1a1.18 1.18 0 0 0 1.13-1.12V42.38a2.27 2.27 0 0 1 4.22-1.16l6.35 11c3.1 5.33 6.3 10.85 6.35 10.94a.93.93 0 0 0 .8.45 1 1 0 0 0 1-.94V42.38a2.27 2.27 0 0 1 4.22-1.16l6.35 11 6.34 10.94a.95.95 0 0 0 1.75-.49V36.38h-4V52S71 39.58 70.75 39.18a6 6 0 0 0-11.21 3.09V52s-7.21-12.42-7.45-12.82a6 6 0 0 0-11.21 3.09v16a1.06 1.06 0 0 1-1.07 1.09h-6.14a6.84 6.84 0 0 1 0-13.68h5.14v-4h-5.18a10.83 10.83 0 0 0-10.82 10.83"/><path fill="#fff" d="M83.52 36.38v26.24a2.28 2.28 0 0 1-4.23 1.16c-.05-.09-3.11-5.36-6.34-11l-6.34-10.89a1 1 0 0 0-.81-.45.94.94 0 0 0-.94.94v20.24a2.28 2.28 0 0 1-2.28 2.27 2.25 2.25 0 0 1-1.95-1.11l-6.35-11-6.34-10.89a1 1 0 0 0-.81-.45.94.94 0 0 0-.94.94v19.83a2.52 2.52 0 0 1-2.46 2.45h-10.1a12.15 12.15 0 0 1 0-24.3h5.18v-4h-5.18a16.13 16.13 0 0 0 0 32.26h10.2c3.87 0 6.35-2.26 6.35-6.44V53l7.45 12.82a6 6 0 0 0 11.21-3.09V53l7.45 12.82a6 6 0 0 0 11.21-3.09V36.38z"/><path fill="#bb261a" d="M21.48 52.51a12.16 12.16 0 0 0 12.15 12.15h10.1a2.52 2.52 0 0 0 2.46-2.45V42.38a.95.95 0 0 1 1.75-.49l6.34 10.94 6.35 11a2.25 2.25 0 0 0 1.95 1.11 2.28 2.28 0 0 0 2.28-2.27V42.38a.95.95 0 0 1 1.75-.49L73 52.83c3.23 5.59 6.29 10.86 6.34 11a2.28 2.28 0 0 0 4.23-1.16V36.38h-1.38v26.24a.95.95 0 0 1-1.75.49L74.1 52.17l-6.35-11a2.27 2.27 0 0 0-4.22 1.16v20.29a1 1 0 0 1-1 .94.93.93 0 0 1-.8-.45c-.05-.09-3.25-5.61-6.35-10.94l-6.35-11a2.27 2.27 0 0 0-4.22 1.16v19.88a1.18 1.18 0 0 1-1.13 1.12H33.63a10.82 10.82 0 0 1 0-21.64h5.18v-1.33h-5.18a12.16 12.16 0 0 0-12.15 12.15"/></svg>