<svg xmlns="http://www.w3.org/2000/svg" viewBox="0 0 105 105"><title>icon-bbc-news</title><path fill="#9d0a0e" d="M0 0h105v105H0z"/><path fill="#fff" d="M54.74 41.93a1.24 1.24 0 0 1-.42 1 2.56 2.56 0 0 1-1.73.48h-1.78v-2.89h1.7a3 3 0 0 1 1.71.41 1.21 1.21 0 0 1 .52 1M53.29 38.51a1.25 1.25 0 0 0 .5-1.08 1.1 1.1 0 0 0-.35-.87 2 2 0 0 0-1.37-.38h-1.26v2.71h.86a2.79 2.79 0 0 0 1.62-.38"/><path fill="#fff" d="M56.66 42.14a2.81 2.81 0 0 0-2.28-2.71 2.52 2.52 0 0 0 .9-.72 2.3 2.3 0 0 0 .43-1.42 2.54 2.54 0 0 0-.84-1.89 3.84 3.84 0 0 0-2.64-.86h-3.3V45h3.87a4.36 4.36 0 0 0 3-.93 2.6 2.6 0 0 0 .89-2m3.67 4.91H44.88V32.5h15.45zM35.49 38.51a1.22 1.22 0 0 0 .51-1.08 1.1 1.1 0 0 0-.35-.87 2 2 0 0 0-1.37-.38H33v2.71h.87a2.82 2.82 0 0 0 1.62-.38M36.42 40.93a3 3 0 0 0-1.72-.41H33v2.86h1.78a2.56 2.56 0 0 0 1.73-.48 1.24 1.24 0 0 0 .42-1 1.18 1.18 0 0 0-.51-1"/><path fill="#fff" d="M38.85 42.14a2.79 2.79 0 0 0-2.28-2.71 2.52 2.52 0 0 0 .9-.72 2.3 2.3 0 0 0 .43-1.42 2.51 2.51 0 0 0-.84-1.89 3.83 3.83 0 0 0-2.64-.86h-3.3V45H35a4.36 4.36 0 0 0 3-.93 2.6 2.6 0 0 0 .89-2m3.68 4.91h-15.5V32.5h15.46zM75.07 42.21l-.25.15a7.23 7.23 0 0 1-3.68 1.13c-2.53 0-4.2-1.51-4.2-3.7s1.74-3.71 4.14-3.72a7.29 7.29 0 0 1 3.64 1l.24.13v-2h-.1a10.16 10.16 0 0 0-3.77-.84A6.4 6.4 0 0 0 66.74 36a5.27 5.27 0 0 0-1.73 4 5.12 5.12 0 0 0 1.44 3.44A6.07 6.07 0 0 0 71 45.15a8.44 8.44 0 0 0 4-.91h.09v-2zm3.07 4.84H62.68V32.5h15.46zM31.07 55.13h2.34V72.3h-2.12L19.81 59.08V72.3H17.5V55.13h2l11.57 13.34zM37.84 55.13h9.73v2.19H40.3v5.23h7v2.2h-7v5.34h7.51v2.19h-10zM73.81 55.13h2.46l-7 17.25h-.54l-5.61-14-5.68 14H57l-7-17.25h2.48L57.25 67 62 55.13h2.32L69.13 67zM82.93 65.11L81.06 64a8.38 8.38 0 0 1-2.5-2.11 4 4 0 0 1-.75-2.39 4.24 4.24 0 0 1 1.41-3.3 5.29 5.29 0 0 1 3.66-1.26 6.93 6.93 0 0 1 3.94 1.2v2.8a5.64 5.64 0 0 0-4-1.79 3.33 3.33 0 0 0-2 .56 1.67 1.67 0 0 0-.78 1.42 2.21 2.21 0 0 0 .58 1.45A7.08 7.08 0 0 0 82.48 62l1.88 1.11Q87.5 65 87.5 67.85a4.39 4.39 0 0 1-1.38 3.36 5.06 5.06 0 0 1-3.6 1.29 7.51 7.51 0 0 1-4.63-1.57v-3.12a5.77 5.77 0 0 0 4.61 2.52 2.87 2.87 0 0 0 1.92-.64 2 2 0 0 0 .77-1.61c0-1-.76-2-2.26-3"/></svg>