<svg xmlns="http://www.w3.org/2000/svg" viewBox="0 0 105 105"><title>icon-usa-today</title><path fill="#008ece" d="M0 0h105v105H0z"/><path fill="#fff" d="M30.27 36.5v8.23c0 1.88-.08 3.74-1.54 5.16a7 7 0 0 1-4.85 1.63A7 7 0 0 1 19 49.89c-1.45-1.42-1.53-3.28-1.53-5.16V36.5h3.8v7.7c0 1.91.14 4 2.58 4s2.58-2.07 2.58-4v-7.7zM40.7 40.26a4 4 0 0 0-2.52-1c-.7 0-1.63.41-1.63 1.23s1 1.18 1.68 1.39l1 .29c2 .61 3.6 1.63 3.6 4a4.94 4.94 0 0 1-1.51 3.94 6.41 6.41 0 0 1-4.15 1.38A9 9 0 0 1 32 49.85l1.63-3.07A5.18 5.18 0 0 0 37 48.3c.89 0 1.85-.45 1.85-1.48s-1.5-1.43-2.31-1.67c-2.39-.68-4-1.3-4-4.13a4.74 4.74 0 0 1 5-4.91 10 10 0 0 1 4.58 1.21zM48.34 48.59l-1 2.54h-4l5.58-14.63h4.15l5.51 14.63h-4l-1-2.54zM51 41l-1.57 4.66h3.16zM25.39 68.4h-3.8V57h-3.14v-3.23h10.09V57h-3.15zM45.36 60.82a7.78 7.78 0 0 1-8.09 8.07 7.79 7.79 0 0 1-8.1-8.07c0-4.43 3.89-7.53 8.1-7.53s8.09 3.1 8.09 7.53zm-12.23 0a4.14 4.14 0 1 0 8.27 0 4.14 4.14 0 0 0-8.27 0zM47.11 53.77h5.4a7.32 7.32 0 1 1 0 14.63h-5.4zm3.81 11.41h.85c2.23 0 4.23-1.24 4.23-4.09A3.86 3.86 0 0 0 51.81 57h-.89zM65.42 65.86l-1 2.54h-4L66 53.77h4.15l5.52 14.63h-4l-1-2.54zm2.66-7.57L66.47 63h3.17zM72.91 53.77h4.56l2.74 4 2.73-4h4.56l-5.39 7.61v7H78.3v-7l-5.39-7.61z"/></svg>