<svg xmlns="http://www.w3.org/2000/svg" width="48" height="48" fill="none" viewBox="0 0 48 48">
	<path fill="var(--color-gray5, #BFAFAD)" fill-rule="evenodd" d="M28.61 12a3.166 3.166 0 0 0-2.322.955 3.158 3.158 0 0 0-.956 2.318v6.546a3.26 3.26 0 0 0 3.278 3.272h3.824a1.631 1.631 0 0 1 1.64 1.637v.545a4.363 4.363 0 0 1-4.37 4.363H28.61a1.106 1.106 0 0 0-1.092 1.091v2.182A1.106 1.106 0 0 0 28.61 36h1.093a8.518 8.518 0 0 0 3.389-.69 8.653 8.653 0 0 0 4.66-4.653c.46-1.068.696-2.22.692-3.383v-12a3.15 3.15 0 0 0-.957-2.318A3.165 3.165 0 0 0 35.166 12H28.61zM13.28 12a3.168 3.168 0 0 0-2.323.955A3.16 3.16 0 0 0 10 15.273v6.546a3.155 3.155 0 0 0 .955 2.317 3.17 3.17 0 0 0 2.323.955h3.823a1.63 1.63 0 0 1 1.64 1.637v.545a4.202 4.202 0 0 1-1.28 3.084 4.213 4.213 0 0 1-3.09 1.28h-1.093a1.05 1.05 0 0 0-.769.323 1.051 1.051 0 0 0-.323.767v2.182a1.046 1.046 0 0 0 .323.767 1.051 1.051 0 0 0 .769.323h1.092a8.52 8.52 0 0 0 3.387-.69 8.792 8.792 0 0 0 2.79-1.867 8.822 8.822 0 0 0 1.87-2.787 8.504 8.504 0 0 0 .695-3.382v-12a3.15 3.15 0 0 0-.957-2.318A3.167 3.167 0 0 0 19.835 12h-6.556z" clip-rule="evenodd" />
</svg>
