<svg xmlns="http://www.w3.org/2000/svg" id="Layer_1" x="0" y="0" version="1.1" viewBox="0 0 1365.3 1365.3" xml:space="preserve"><style>.st0{fill-rule:evenodd;clip-rule:evenodd}</style><path d="M155.9 107.3c-43.3 0-80.1 15.3-110.4 45.9C15.3 183.8.2 221 .2 264.8v314.9c0 43.7 15.1 80.9 45.4 111.5 30.3 30.6 67.1 45.9 110.4 45.9h181.7c21.6 0 40 7.7 55.2 23 15.1 15.3 22.7 33.9 22.7 55.8v26.2c0 58-20.3 107.4-60.8 148.4-40.6 41-89.5 61.5-146.8 61.5h-51.9c-14.1 0-26.3 5.2-36.5 15.6-10.3 10.4-15.4 22.7-15.4 36.9v105c0 14.2 5.1 26.5 15.4 36.9 10.3 10.4 22.4 15.6 36.5 15.6H208c56.2 0 109.9-11.1 161-33.2 51.1-22.1 95.3-52.1 132.6-89.8 37.3-37.7 66.9-82.4 88.8-134.1 21.9-51.7 32.9-105.9 32.9-162.8V264.7c0-43.7-15.2-80.9-45.5-111.5-30.3-30.6-67-45.9-110.3-45.9H155.9zm736.1-4c-43.8 0-81.1 15.3-111.8 45.9-30.6 30.6-46 67.8-46 111.6v314.9c0 43.7 15.3 80.9 46 111.5 30.7 30.6 67.9 45.9 111.8 45.9h184c21.9 0 40.5 7.7 55.9 23 15.3 15.3 23 33.9 23 55.8v26.2c0 58-20.5 107.4-61.6 148.4s-90.6 61.5-148.7 61.5H892c-14.3 0-26.6 5.2-37 15.6-10.4 10.4-15.6 22.7-15.6 36.9v105c0 14.2 5.2 26.5 15.6 36.9 10.4 10.4 22.7 15.6 37 15.6h52.6c56.9 0 111.3-11.1 163-33.2s96.5-52.1 134.3-89.8c37.8-37.7 67.7-82.4 90-134.1 22.2-51.7 33.3-105.9 33.3-162.8V260.8c0-43.7-15.4-80.9-46-111.5-30.7-30.6-67.9-45.9-111.7-45.9H892v-.1z" class="st0"/></svg>