<svg xmlns="http://www.w3.org/2000/svg" viewBox="0 0 24 24"><title>placeholder</title><path fill="#e0e0e1" d="M0 0h24v24H0z"/><path fill="#d2d2d4" fill-rule="evenodd" d="M7.38 6.94a1.32 1.32 0 0 0-1 .4 1.35 1.35 0 0 0-.41 1v2.76a1.34 1.34 0 0 0 .41 1 1.32 1.32 0 0 0 1 .4H9a.68.68 0 0 1 .69.69v.23a1.84 1.84 0 0 1-1.84 1.85h-.47a.45.45 0 0 0-.33.14.44.44 0 0 0-.13.32v.93a.44.44 0 0 0 .13.32.45.45 0 0 0 .33.14h.46a3.64 3.64 0 0 0 1.42-.29 3.76 3.76 0 0 0 1.18-.83 4 4 0 0 0 .79-1.18 3.74 3.74 0 0 0 .29-1.44V8.32a1.38 1.38 0 0 0-.4-1 1.34 1.34 0 0 0-1-.4zM13.84 6.9a1.4 1.4 0 0 0-1.4 1.39v2.78a1.38 1.38 0 0 0 1.4 1.39h1.62a.67.67 0 0 1 .49.21.68.68 0 0 1 .2.49v.23a1.84 1.84 0 0 1-1.85 1.85h-.46a.48.48 0 0 0-.47.47v.92a.48.48 0 0 0 .47.47h.46a3.57 3.57 0 0 0 1.44-.3 3.66 3.66 0 0 0 2-2 3.57 3.57 0 0 0 .3-1.44V8.29a1.4 1.4 0 0 0-1.42-1.39z"/></svg>